<svg width="69" height="48" viewBox="0 0 69 48" fill="none" xmlns="http://www.w3.org/2000/svg">
<path d="M67.0547 47.8792H1.12709C0.947697 47.8792 0.77565 47.8079 0.648799 47.6811C0.521948 47.5542 0.450684 47.3822 0.450684 47.2028C0.450684 47.0234 0.521948 46.8513 0.648799 46.7245C0.77565 46.5976 0.947697 46.5264 1.12709 46.5264H67.0547C67.2341 46.5264 67.4061 46.5976 67.533 46.7245C67.6598 46.8513 67.7311 47.0234 67.7311 47.2028C67.7311 47.3822 67.6598 47.5542 67.533 47.6811C67.4061 47.8079 67.2341 47.8792 67.0547 47.8792Z" fill="black"/>
<path d="M8.27895 23.2161H13.5479C13.7273 23.2161 13.8993 23.1448 14.0262 23.018C14.153 22.8911 14.2243 22.7191 14.2243 22.5397V13.6111C14.2239 13.2883 14.0955 12.9789 13.8672 12.7506C13.639 12.5224 13.3295 12.394 13.0068 12.3936H8.82007C8.49729 12.394 8.18786 12.5224 7.95962 12.7506C7.73138 12.9789 7.60297 13.2883 7.60254 13.6111V22.5397C7.60254 22.7191 7.6738 22.8911 7.80065 23.018C7.92751 23.1448 8.09955 23.2161 8.27895 23.2161ZM11.5901 13.7464H12.8715V15.6896H11.5912L11.5901 13.7464ZM11.5901 17.0424H12.8715V21.8622H11.5912L11.5901 17.0424ZM8.95535 13.7464H10.2373V15.6896H8.95644L8.95535 13.7464ZM8.95535 17.0424H10.2373V21.8622H8.95644L8.95535 17.0424Z" fill="black"/>
<path d="M19.8698 23.2161H25.1393C25.3187 23.2161 25.4907 23.1448 25.6176 23.018C25.7444 22.8911 25.8157 22.7191 25.8157 22.5397V13.6111C25.8152 13.2883 25.6868 12.9789 25.4586 12.7506C25.2303 12.5224 24.9209 12.394 24.5981 12.3936H20.4109C20.0881 12.394 19.7787 12.5224 19.5504 12.7506C19.3222 12.9789 19.1938 13.2883 19.1934 13.6111V22.5397C19.1934 22.7191 19.2646 22.8911 19.3915 23.018C19.5183 23.1448 19.6904 23.2161 19.8698 23.2161ZM23.1809 13.7464H24.4628V15.6896H23.1809V13.7464ZM23.1809 17.0424H24.4628V21.8622H23.1809V17.0424ZM20.5462 13.7464H21.8281V15.6896H20.5462V13.7464ZM20.5462 17.0424H21.8281V21.8622H20.5462V17.0424Z" fill="black"/>
<path d="M31.4591 23.2161H36.7286C36.908 23.2161 37.0801 23.1448 37.2069 23.018C37.3338 22.8911 37.405 22.7191 37.405 22.5397V13.6111C37.4046 13.2883 37.2762 12.9789 37.0479 12.7506C36.8197 12.5224 36.5103 12.394 36.1875 12.3936H32.0002C31.6775 12.394 31.368 12.5224 31.1398 12.7506C30.9116 12.9789 30.7831 13.2883 30.7827 13.6111V22.5397C30.7827 22.7191 30.854 22.8911 30.9808 23.018C31.1077 23.1448 31.2797 23.2161 31.4591 23.2161ZM34.7703 13.7464H36.0522V15.6896H34.7703V13.7464ZM34.7703 17.0424H36.0522V21.8622H34.7703V17.0424ZM32.1355 13.7464H33.4175V15.6896H32.1355V13.7464ZM32.1355 17.0424H33.4175V21.8622H32.1355V17.0424Z" fill="black"/>
<path d="M43.049 23.2161H48.3185C48.4979 23.2161 48.6699 23.1448 48.7967 23.018C48.9236 22.8911 48.9949 22.7191 48.9949 22.5397V13.6111C48.9944 13.2883 48.866 12.9789 48.6378 12.7506C48.4095 12.5224 48.1001 12.394 47.7773 12.3936H43.5901C43.2673 12.394 42.9579 12.5224 42.7296 12.7506C42.5014 12.9789 42.373 13.2883 42.3726 13.6111V22.5397C42.3726 22.7191 42.4438 22.8911 42.5707 23.018C42.6975 23.1448 42.8696 23.2161 43.049 23.2161ZM46.3601 13.7464H47.642V15.6896H46.3601V13.7464ZM46.3601 17.0424H47.642V21.8622H46.3601V17.0424ZM43.7254 13.7464H45.0073V15.6896H43.7254V13.7464ZM43.7254 17.0424H45.0073V21.8622H43.7254V17.0424Z" fill="black"/>
<path d="M54.6393 23.2161H59.9088C60.0882 23.2161 60.2602 23.1448 60.3871 23.018C60.5139 22.8911 60.5852 22.7191 60.5852 22.5397V13.6111C60.5848 13.2883 60.4564 12.9789 60.2281 12.7506C59.9999 12.5224 59.6904 12.394 59.3677 12.3936H55.1804C54.8576 12.394 54.5482 12.5224 54.32 12.7506C54.0917 12.9789 53.9633 13.2883 53.9629 13.6111V22.5397C53.9629 22.7191 54.0342 22.8911 54.161 23.018C54.2879 23.1448 54.4599 23.2161 54.6393 23.2161ZM57.9505 13.7464H59.2324V15.6896H57.9505V13.7464ZM57.9505 17.0424H59.2324V21.8622H57.9505V17.0424ZM55.3157 13.7464H56.5976V15.6896H55.3157V13.7464ZM55.3157 17.0424H56.5976V21.8622H55.3157V17.0424Z" fill="black"/>
<path d="M66.1591 25.1663V7.83723H66.408C66.6215 7.834 66.8305 7.77559 67.0147 7.66769C67.199 7.55978 67.3521 7.40605 67.4594 7.22143C67.5991 6.98719 67.6757 6.72077 67.6817 6.44812C67.6878 6.17547 67.6231 5.9059 67.494 5.66569L64.8966 1.27499C64.7223 0.942709 64.4646 0.661457 64.1488 0.458823C63.833 0.256188 63.4699 0.139133 63.0952 0.119141H5.07075C4.69877 0.141782 4.33895 0.260074 4.02611 0.462569C3.71326 0.665064 3.458 0.9449 3.28503 1.27499L0.666516 5.7014C0.545389 5.93842 0.486783 6.20243 0.496253 6.46844C0.505723 6.73444 0.582954 6.99362 0.720629 7.22143C0.827873 7.40605 0.981059 7.55978 1.1653 7.66769C1.34953 7.77559 1.55855 7.834 1.77204 7.83723H2.02096V25.1668C1.46437 25.2312 0.950889 25.498 0.578173 25.9163C0.205457 26.3347 -0.000488281 26.8754 -0.000488281 27.4357C-0.000488281 27.996 0.205457 28.5368 0.578173 28.9552C0.950889 29.3735 1.46437 29.6403 2.02096 29.7047V47.2026C2.02096 47.3819 2.09222 47.554 2.21907 47.6808C2.34592 47.8077 2.51797 47.879 2.69736 47.879H65.4827C65.662 47.879 65.8341 47.8077 65.9609 47.6808C66.0878 47.554 66.1591 47.3819 66.1591 47.2026V29.7052C66.7174 29.643 67.2332 29.377 67.6078 28.9583C67.9824 28.5397 68.1895 27.9976 68.1895 27.4357C68.1895 26.8739 67.9824 26.3318 67.6078 25.9131C67.2332 25.4944 66.7174 25.2285 66.1591 25.1663ZM1.86132 6.48441C1.84397 6.4435 1.84092 6.39794 1.85267 6.35508L4.45007 1.96384C4.50915 1.83699 4.59776 1.72613 4.70847 1.64056C4.81919 1.55498 4.94879 1.49716 5.08644 1.47196H63.099C63.2357 1.49796 63.3642 1.55613 63.4739 1.64167C63.5836 1.72721 63.6714 1.83764 63.7299 1.96384L66.3095 6.31883C66.3335 6.37079 66.3372 6.42987 66.3198 6.48441H1.86132ZM64.8062 7.83723V25.1392H3.3754V7.83723H64.8062ZM10.0037 46.5261H8.72173V41.2561H10.0037V46.5261ZM10.0037 39.9033H8.72173V36.4774C8.72299 36.0916 8.84828 35.7164 9.07912 35.4072C9.30995 35.098 9.63408 34.8713 10.0037 34.7604V39.9033ZM12.6384 46.5261H11.3565V41.2561H12.6384V46.5261ZM12.6384 39.9033H11.3565V34.7626C11.7261 34.8734 12.0503 35.1001 12.2811 35.4093C12.512 35.7185 12.6372 36.0937 12.6384 36.4796V39.9033ZM21.0675 46.5261H19.7851V41.2983H21.0675V46.5261ZM21.0675 39.9455H19.7851V36.5196C19.7865 36.1338 19.912 35.7586 20.1429 35.4495C20.3738 35.1403 20.6979 34.9136 21.0675 34.8026V39.9455ZM23.7012 46.5261H22.4203V41.2983H23.7012V46.5261ZM23.7012 39.9455H22.4203V34.8048C22.7899 34.9157 23.114 35.1425 23.3448 35.4517C23.5756 35.7608 23.7009 36.136 23.7023 36.5218L23.7012 39.9455ZM39.0795 46.5261H29.1087C28.9575 46.5261 28.8126 46.4661 28.7058 46.3593C28.5989 46.2524 28.5389 46.1075 28.5389 45.9563C28.5389 45.8052 28.5989 45.6603 28.7058 45.5534C28.8126 45.4466 28.9575 45.3865 29.1087 45.3865H39.0795C39.2306 45.3865 39.3755 45.4466 39.4824 45.5534C39.5892 45.6603 39.6493 45.8052 39.6493 45.9563C39.6493 46.1075 39.5892 46.2524 39.4824 46.3593C39.3755 46.4661 39.2306 46.5261 39.0795 46.5261ZM30.4047 44.0337V36.8973C30.4047 35.9197 30.793 34.9821 31.4843 34.2908C32.1756 33.5996 33.1132 33.2112 34.0908 33.2112C35.0685 33.2112 36.006 33.5996 36.6973 34.2908C37.3886 34.9821 37.777 35.9197 37.777 36.8973V44.0337H30.4047ZM45.7613 46.5261H44.4804V41.2983H45.7624L45.7613 46.5261ZM45.7613 39.9455H44.4804V36.5196C44.4818 36.1338 44.6071 35.7587 44.838 35.4495C45.0688 35.1403 45.3929 34.9136 45.7624 34.8026L45.7613 39.9455ZM48.3966 46.5261H47.1141V41.2983H48.3966V46.5261ZM48.3966 39.9455H47.1141V34.8048C47.4837 34.9157 47.8078 35.1425 48.0388 35.4516C48.2697 35.7608 48.3951 36.1359 48.3966 36.5218V39.9455ZM56.8252 46.5261H55.5432V41.2561H56.8252V46.5261ZM56.8252 39.9033H55.5432V36.4774C55.5444 36.0916 55.6697 35.7163 55.9005 35.4071C56.1314 35.0979 56.4556 34.8712 56.8252 34.7604V39.9033ZM59.4599 46.5261H58.178V41.2561H59.4599V46.5261ZM59.4599 39.9033H58.178V34.7626C58.5476 34.8734 58.8717 35.1002 59.1025 35.4094C59.3334 35.7186 59.4587 36.0938 59.4599 36.4796V39.9033ZM64.8062 46.5261H60.8127V36.4774C60.8119 35.6409 60.4792 34.839 59.8878 34.2474C59.2964 33.6559 58.4944 33.3231 57.658 33.3221H57.3452C56.5087 33.3231 55.7068 33.6559 55.1154 34.2474C54.5239 34.839 54.1913 35.6409 54.1904 36.4774V46.5261H49.7494V36.5196C49.7483 35.6831 49.4154 34.8811 48.8238 34.2896C48.2322 33.6981 47.4301 33.3653 46.5935 33.3643H46.2813C45.4448 33.3653 44.6429 33.6981 44.0515 34.2896C43.46 34.8812 43.1274 35.6832 43.1266 36.5196V46.5261H40.909C40.9699 46.3421 41.0023 46.1497 41.0048 45.9558C41.0038 45.4553 40.8077 44.975 40.458 44.617C40.1083 44.2589 39.6328 44.0514 39.1325 44.0386V36.8957C39.1325 35.5593 38.6016 34.2776 37.6566 33.3326C36.7116 32.3876 35.4299 31.8567 34.0935 31.8567C32.7571 31.8567 31.4754 32.3876 30.5304 33.3326C29.5854 34.2776 29.0546 35.5593 29.0546 36.8957V44.0386C28.5554 44.0531 28.0816 44.2612 27.7332 44.6189C27.3849 44.9767 27.1894 45.4559 27.1882 45.9553C27.1909 46.1492 27.2234 46.3415 27.2845 46.5256H25.054V36.5196C25.0531 35.6832 24.7205 34.8812 24.1291 34.2896C23.5376 33.6981 22.7357 33.3653 21.8992 33.3643H21.5908C20.7542 33.3653 19.9522 33.6981 19.3606 34.2896C18.769 34.8811 18.4361 35.6831 18.4349 36.5196V46.5261H13.9912V36.4774C13.9904 35.6409 13.6577 34.839 13.0663 34.2474C12.4749 33.6559 11.6729 33.3231 10.8364 33.3221H10.5237C9.68719 33.3231 8.88527 33.6559 8.29384 34.2474C7.7024 34.839 7.36977 35.6409 7.36891 36.4774V46.5261H3.3754V29.7323H64.8062V46.5261ZM65.8885 28.3795H2.29693C2.04664 28.3795 1.8066 28.28 1.62962 28.1031C1.45263 27.9261 1.35321 27.686 1.35321 27.4357C1.35321 27.1855 1.45263 26.9454 1.62962 26.7684C1.8066 26.5914 2.04664 26.492 2.29693 26.492H65.8912C66.1415 26.492 66.3815 26.5914 66.5585 26.7684C66.7355 26.9454 66.8349 27.1855 66.8349 27.4357C66.8349 27.686 66.7355 27.9261 66.5585 28.1031C66.3815 28.28 66.1415 28.3795 65.8912 28.3795H65.8885Z" fill="black"/>
<path d="M34.1125 12.1166C34.5085 12.1166 34.8956 11.9992 35.2249 11.7792C35.5541 11.5592 35.8107 11.2465 35.9623 10.8807C36.1138 10.5148 36.1535 10.1123 36.0762 9.72387C35.999 9.33549 35.8083 8.97873 35.5283 8.69873C35.2483 8.41872 34.8915 8.22803 34.5031 8.15078C34.1147 8.07352 33.7122 8.11317 33.3463 8.26471C32.9805 8.41625 32.6678 8.67287 32.4478 9.00213C32.2278 9.33138 32.1104 9.71848 32.1104 10.1145C32.1104 10.6455 32.3213 11.1547 32.6968 11.5302C33.0723 11.9057 33.5815 12.1166 34.1125 12.1166ZM34.1125 9.46891C34.241 9.46891 34.3665 9.50699 34.4733 9.57835C34.5801 9.6497 34.6633 9.75111 34.7124 9.86977C34.7616 9.98842 34.7744 10.119 34.7494 10.2449C34.7243 10.3709 34.6625 10.4866 34.5717 10.5774C34.4809 10.6682 34.3652 10.7301 34.2392 10.7551C34.1132 10.7802 33.9827 10.7673 33.864 10.7182C33.7454 10.669 33.644 10.5858 33.5726 10.479C33.5013 10.3722 33.4632 10.2467 33.4632 10.1183C33.4632 10.033 33.48 9.94855 33.5126 9.86977C33.5452 9.79098 33.5931 9.7194 33.6534 9.6591C33.7137 9.5988 33.7852 9.55097 33.864 9.51834C33.9428 9.48571 34.0272 9.46891 34.1125 9.46891Z" fill="black"/>
</svg>
