<svg width="73" height="69" viewBox="0 0 73 69" fill="none" xmlns="http://www.w3.org/2000/svg">
<g id="Group 34591">
<g id="Group 34588">
<path id="Vector" d="M46.1 14.3582C46.1 6.96707 52.1089 0.958154 59.5 0.958154C66.8911 0.958154 72.9 6.96707 72.9 14.3582C72.9 21.7492 66.8911 27.7582 59.5 27.7582C52.1089 27.7582 46.1 21.7492 46.1 14.3582ZM47.7758 14.3582C47.7758 20.8081 53.05 26.0824 59.5 26.0824C65.95 26.0824 71.2242 20.8081 71.2242 14.3582C71.2242 7.90819 65.95 2.63394 59.5 2.63394C53.05 2.63394 47.7758 7.90819 47.7758 14.3582Z" fill="#2D3041" stroke="white" stroke-width="0.2"/>
</g>
<g id="Group 34590">
<path id="Vector_2" d="M63.8655 8.89511L63.8656 8.89504L63.8617 8.89139C62.8267 7.92783 61.607 7.42332 60.3117 7.42332C58.1861 7.42332 56.3651 8.82757 55.3716 10.8147L55.263 11.0318H55.5057H61.6002C62.1443 11.0318 62.5995 11.487 62.5995 12.031C62.5995 12.575 62.1443 13.0303 61.6002 13.0303H54.844H54.7098L54.695 13.1637C54.6601 13.4775 54.6244 13.833 54.6244 14.1902C54.6244 14.5515 54.6548 14.8527 54.6866 15.1689C54.6893 15.1958 54.6921 15.2228 54.6948 15.2499L54.7083 15.385H54.844H61.6002C62.1443 15.385 62.5995 15.8402 62.5995 16.3842C62.5995 16.9283 62.1443 17.3835 61.6002 17.3835H55.5406H55.3035L55.405 17.5977C56.3639 19.6221 58.1858 21.0268 60.3117 21.0268C61.5708 21.0268 62.8261 20.5232 63.8277 19.5579C64.253 19.1638 64.8557 19.1921 65.2534 19.5878C65.6467 20.0134 65.6179 20.6158 65.2219 21.0131C63.8554 22.3106 62.1164 23.0253 60.3117 23.0253C57.079 23.0253 54.3073 20.7444 53.1748 17.4843L53.1398 17.3835H53.0331H51.1873C50.6433 17.3835 50.1881 16.9283 50.1881 16.3842C50.1881 15.8402 50.6433 15.385 51.1873 15.385H52.5455H52.7113L52.6948 15.2201C52.6598 14.8705 52.6259 14.5297 52.6259 14.1902C52.6259 13.8791 52.6544 13.5966 52.6861 13.2813C52.689 13.2529 52.6919 13.2242 52.6948 13.1952L52.7113 13.0303H52.5455H51.1873C50.6433 13.0303 50.1881 12.575 50.1881 12.031C50.1881 11.487 50.6433 11.0318 51.1873 11.0318H53.0679H53.1746L53.2096 10.931C54.3421 7.67084 57.1138 5.38999 60.3465 5.38999C62.15 5.38999 63.8545 6.10375 65.2567 7.4369C65.6555 7.8371 65.6781 8.47234 65.2902 8.86028C64.8901 9.2604 64.2539 9.28347 63.8655 8.89511Z" fill="#2D3041" stroke="white" stroke-width="0.3"/>
<g id="Group 34587">
<path id="Vector_3" d="M7.20316 59.4598V59.6598H7.40316H52.493H52.693V59.4598V55.8813V55.6813H52.493H7.40316H7.20316V55.8813V59.4598ZM53.9475 62.1226H5.94865C5.25609 62.1226 4.69414 61.565 4.69414 60.8912V54.4499C4.69414 53.7761 5.25609 53.2186 5.94865 53.2186H53.9475C54.64 53.2186 55.202 53.7761 55.202 54.4499V60.8912C55.202 61.565 54.64 62.1226 53.9475 62.1226Z" fill="#2D3041" stroke="white" stroke-width="0.4"/>
<path id="Vector_4" d="M3.56693 65.9009V66.1009H3.76693H56.1293H56.3293V65.9009V62.3225V62.1225H56.1293H3.76693H3.56693V62.3225V65.9009ZM57.5838 68.5637H2.31242C1.61986 68.5637 1.05791 68.0061 1.05791 67.3323V60.8911C1.05791 60.2173 1.61986 59.6597 2.31242 59.6597H57.5838C58.2764 59.6597 58.8383 60.2173 58.8383 60.8911V67.3323C58.8383 68.0061 58.2764 68.5637 57.5838 68.5637Z" fill="#2D3041" stroke="white" stroke-width="0.4"/>
<path id="Vector_5" d="M11.1527 52.5789C10.4651 52.5789 9.90166 52.0155 9.90166 51.3279V31.0128C9.90166 30.3252 10.4651 29.7618 11.1527 29.7618C11.8404 29.7618 12.4038 30.3252 12.4038 31.0128V51.3279C12.4038 52.0155 11.8404 52.5789 11.1527 52.5789Z" fill="#2D3041" stroke="white" stroke-width="0.4"/>
<path id="Vector_6" d="M20.8266 52.5789C20.1389 52.5789 19.5755 52.0155 19.5755 51.3279V31.0128C19.5755 30.3252 20.1389 29.7618 20.8266 29.7618C21.5142 29.7618 22.0776 30.3252 22.0776 31.0128V51.3279C22.0776 52.0155 21.5142 52.5789 20.8266 52.5789Z" fill="#2D3041" stroke="white" stroke-width="0.4"/>
<path id="Vector_7" d="M29.5331 52.5789C28.8455 52.5789 28.282 52.0155 28.282 51.3279V31.0128C28.282 30.3252 28.8455 29.7618 29.5331 29.7618C30.2207 29.7618 30.7842 30.3252 30.7842 31.0128V51.3279C30.7842 52.0155 30.2207 52.5789 29.5331 52.5789Z" fill="#2D3041" stroke="white" stroke-width="0.4"/>
<path id="Vector_8" d="M39.2069 52.5789C38.5193 52.5789 37.9559 52.0155 37.9559 51.3279V31.0128C37.9559 30.3252 38.5193 29.7618 39.2069 29.7618C39.8946 29.7618 40.458 30.3252 40.458 31.0128V51.3279C40.458 52.0155 39.8946 52.5789 39.2069 52.5789Z" fill="#2D3041" stroke="white" stroke-width="0.4"/>
<path id="Vector_9" d="M48.8808 52.5789C48.1931 52.5789 47.6297 52.0155 47.6297 51.3279V31.0128C47.6297 30.3252 48.1931 29.7618 48.8808 29.7618C49.5684 29.7618 50.1318 30.3252 50.1318 31.0128V51.3279C50.1318 52.0155 49.5684 52.5789 48.8808 52.5789Z" fill="#2D3041" stroke="white" stroke-width="0.4"/>
<path id="Vector_10" d="M29.323 9.49611L29.323 9.49627L29.3302 9.49155C29.6949 9.25233 30.1947 9.24366 30.6476 9.49746L55.3682 24.2371C55.7619 24.4966 56.0017 24.8688 56.0017 25.2843V28.4238C55.9337 29.1117 55.3606 29.6647 54.6745 29.6647H5.22111C4.52855 29.6647 3.9666 29.1071 3.9666 28.4333V25.2843C3.9666 24.8688 4.20642 24.4966 4.60007 24.2371L29.323 9.49611ZM6.47562 27.0019V27.2019H6.67562H53.2199H53.4199V27.0019V26.0715V25.958L53.3224 25.8998L30.0503 12.0153L29.9478 11.9542L29.8453 12.0153L6.57315 25.8998L6.47562 25.958V26.0715V27.0019Z" fill="#2D3041" stroke="white" stroke-width="0.4"/>
</g>
</g>
</g>
</svg>
