<svg width="61" height="72" viewBox="0 0 61 72" fill="none" xmlns="http://www.w3.org/2000/svg">
<path d="M26.5797 33.7857V35.9876H24.5277V33.7857V33.6357H24.3777C21.9236 33.6357 19.9062 31.6674 19.8263 29.2317H21.8803C21.9585 30.539 23.0517 31.5837 24.3777 31.5837H24.5277V31.4337V26.7298V26.5798H24.3777C21.8734 26.5798 19.8238 24.5302 19.8238 22.0259C19.8238 19.5215 21.8734 17.4719 24.3777 17.4719H24.5277V17.3219V15.12H26.5797V17.3219V17.4719H26.7297C29.1838 17.4719 31.2013 19.4402 31.2812 21.8759H29.2272C29.149 20.5686 28.0558 19.5239 26.7297 19.5239H26.5797V19.6739V24.3778V24.5278H26.7297C29.234 24.5278 31.2836 26.5774 31.2836 29.0817C31.2836 31.586 29.234 33.6357 26.7297 33.6357H26.5797V33.7857ZM24.3777 24.5278H24.5277V24.3778V19.6739V19.5239H24.3777C23.0013 19.5239 21.8758 20.6494 21.8758 22.0259C21.8758 23.4023 23.0013 24.5278 24.3777 24.5278ZM26.5797 31.4337V31.5837H26.7297C28.1061 31.5837 29.2317 30.4582 29.2317 29.0817C29.2317 27.7053 28.1061 26.5798 26.7297 26.5798H26.5797V26.7298V31.4337Z" fill="#2D3041" stroke="white" stroke-width="0.3"/>
<path d="M58.6479 69.3318H58.7479V69.2318V60.9999C58.7479 57.652 56.116 55.02 52.768 55.02H41.0082C37.6603 55.02 35.0283 57.652 35.0283 60.9999V69.2318V69.3318H35.1283H58.6479ZM41.0082 52.8681H52.768C57.2991 52.8681 60.8999 56.4688 60.8999 60.9999V71.4838H32.8764V60.9999C32.8764 56.4688 36.4771 52.8681 41.0082 52.8681Z" fill="#2D3041" stroke="white" stroke-width="0.2"/>
<path d="M19.6736 59.7572H19.7736V59.6572V47.5454C19.7736 46.4961 20.6243 45.6454 21.6736 45.6454H29.4334C30.4827 45.6454 31.3334 46.4961 31.3334 47.5454V61.9091H7.91379H7.81379V62.0091V64.3611V64.4611H7.91379H30.2574C30.8517 64.4611 31.3334 64.9428 31.3334 65.5371C31.3334 66.1313 30.8517 66.613 30.2574 66.613H3.20987H3.10987V66.713V69.065V69.165H3.20987H30.2574C30.8517 69.165 31.3334 69.6467 31.3334 70.241C31.3334 70.8352 30.8517 71.317 30.2574 71.317H0.95791V66.3611C0.95791 65.3117 1.80857 64.4611 2.85791 64.4611H5.56183H5.66183V64.3611V61.6572C5.66183 60.6078 6.51249 59.7572 7.56183 59.7572H10.2658H10.3658V59.6572V12.618V12.518H10.2658H9.91379C8.86445 12.518 8.01379 11.6673 8.01379 10.618V7.56208C8.01379 6.51273 8.86445 5.66208 9.91379 5.66208H10.2658H10.3658V5.56208V2.85815C10.3658 1.80881 11.2164 0.958154 12.2658 0.958154H21.2015C22.2509 0.958154 23.1015 1.80881 23.1015 2.85816V5.56208V5.66208H23.2015H41.1932C42.2425 5.66208 43.0932 6.51273 43.0932 7.56208V10.618C43.0932 11.6673 42.2425 12.518 41.1932 12.518H40.8412H40.7412V12.618V36.2591C39.9018 37.0009 39.1571 37.9276 38.5893 38.9568V12.618V12.518H38.4893H12.6177H12.5177V12.618V59.6572V59.7572H12.6177H19.6736ZM12.6177 3.11011H12.5177V3.21011V5.56208V5.66208H12.6177H20.8496H20.9496V5.56208V3.21011V3.11011H20.8496H12.6177ZM10.2658 7.81404H10.1658V7.91404V10.266V10.366H10.2658H40.8412H40.9412V10.266V7.91404V7.81404H40.8412H10.2658ZM26.7295 47.7974H26.6295V47.8974V59.6572V59.7572H26.7295H29.0814H29.1814V59.6572V47.8974V47.7974H29.0814H26.7295ZM22.0256 47.7974H21.9256V47.8974V59.6572V59.7572H22.0256H24.3775H24.4775V59.6572V47.8974V47.7974H24.3775H22.0256Z" fill="#2D3041" stroke="white" stroke-width="0.2"/>
<path d="M46.8881 51.4921C42.357 51.4921 38.7563 47.8914 38.7563 43.3603C38.7563 38.8292 42.357 35.2284 46.8881 35.2284C51.4192 35.2284 55.02 38.8292 55.02 43.3603C55.02 47.8914 51.4192 51.4921 46.8881 51.4921ZM52.868 43.3603C52.868 40.0123 50.2361 37.3804 46.8881 37.3804C43.5401 37.3804 40.9082 40.0123 40.9082 43.3603C40.9082 46.7083 43.5401 49.3402 46.8881 49.3402C50.2361 49.3402 52.868 46.7083 52.868 43.3603Z" fill="#2D3041" stroke="white" stroke-width="0.2"/>
</svg>
