<svg width="63" height="48" viewBox="0 0 63 48" fill="none" xmlns="http://www.w3.org/2000/svg">
<path d="M19.4983 2.79646H19.491V2.89646C19.491 3.34262 19.1289 3.70476 18.6827 3.70476H9.62147C9.17531 3.70476 8.81316 3.34262 8.81316 2.89646V2.08816H19.4983V2.79646ZM21.6692 45.85H4.30971C3.06425 45.85 2.04812 44.8339 2.04812 43.5885V39.8663H20.1578C20.5109 39.8663 20.8028 39.5745 20.8028 39.2213C20.8028 38.8682 20.5109 38.5764 20.1578 38.5764H2.04812V4.34975C2.04812 3.10428 3.06425 2.08816 4.30971 2.08816H7.51593V2.89646C7.51593 4.05619 8.45447 4.99473 9.6142 4.99473H18.6827C19.8424 4.99473 20.781 4.05619 20.781 2.89646V2.08816H23.9945C25.2399 2.08816 26.256 3.10428 26.256 4.34975V19.0715C26.256 19.4247 26.5479 19.7165 26.901 19.7165C27.2542 19.7165 27.546 19.4247 27.546 19.0715V4.34975C27.546 2.39071 25.9535 0.798193 23.9945 0.798193H4.30971C2.35067 0.798193 0.758154 2.39071 0.758154 4.34975V39.2213V43.5885C0.758154 45.5475 2.35067 47.14 4.30971 47.14H21.6692C22.0224 47.14 22.3142 46.8482 22.3142 46.495C22.3142 46.1419 22.0224 45.85 21.6692 45.85Z" fill="#2D3041" stroke="#2D3041" stroke-width="0.2"/>
<path d="M12.1501 42.8545C12.1501 43.959 13.0439 44.8527 14.1484 44.8527C15.2529 44.8527 16.1467 43.959 16.1467 42.8545C16.1467 41.75 15.2529 40.8562 14.1484 40.8562C13.0439 40.8562 12.1501 41.7572 12.1501 42.8545ZM15.0567 42.8545C15.0567 43.3559 14.6498 43.7628 14.1484 43.7628C13.647 43.7628 13.2401 43.3559 13.2401 42.8545C13.2401 42.3531 13.647 41.9462 14.1484 41.9462C14.6498 41.9462 15.0567 42.3604 15.0567 42.8545Z" fill="#2D3041"/>
<path d="M44.6385 29.2899H20.732C19.376 29.2899 18.2704 30.3956 18.2704 31.7515C18.2704 33.1074 19.376 34.2131 20.732 34.2131H44.6385C45.9944 34.2131 47.1001 33.1074 47.1001 31.7515C47.1001 30.3956 45.9944 29.2899 44.6385 29.2899ZM44.6385 32.9231H20.732C20.0827 32.9231 19.5603 32.3942 19.5603 31.7515C19.5603 31.1091 20.0896 30.5799 20.732 30.5799H44.6385C45.2877 30.5799 45.8101 31.1088 45.8101 31.7515C45.8101 32.3938 45.2808 32.9231 44.6385 32.9231Z" fill="#2D3041" stroke="#2D3041" stroke-width="0.2"/>
<path d="M23.4984 20.6211V20.6066H23.3984C22.6456 20.6066 22.0268 21.2254 22.0268 21.9782V23.0682C22.0268 23.5948 22.3255 24.0548 22.7639 24.2837L21.7714 25.5868C21.7714 25.5868 21.7713 25.5869 21.7713 25.5869C21.684 25.7006 21.6417 25.8388 21.6417 25.982V27.755C21.6417 28.1081 21.9335 28.4 22.2867 28.4C22.6398 28.4 22.9317 28.1081 22.9317 27.755V26.1975L24.2762 24.4398H29.5584L30.7465 26.18V27.755C30.7465 28.1081 31.0384 28.4 31.3915 28.4C31.7447 28.4 32.0365 28.1081 32.0365 27.755V25.982C32.0365 25.8516 31.9934 25.7235 31.9252 25.6213L31.9246 25.6204L30.9838 24.2433C31.3825 24.002 31.6514 23.5698 31.6514 23.0754V21.9855C31.6514 21.2326 31.0326 20.6138 30.2798 20.6138H29.2753V19.9581C29.2753 19.512 29.6374 19.1498 30.0836 19.1498H35.7441C36.1903 19.1498 36.5524 19.512 36.5524 19.9581V25.1322C36.2832 25.7321 35.9586 26.6063 35.642 27.5562C35.5297 27.8931 35.7193 28.2615 36.054 28.373C36.3908 28.4853 36.7592 28.2958 36.8708 27.961L36.871 27.9606C37.3208 26.5892 37.704 25.6795 37.8892 25.3233C38.6191 23.927 40.353 23.3929 41.7505 24.1231C42.9937 24.7835 43.5757 26.2224 43.1265 27.5559L43.1264 27.5562C43.015 27.8904 43.1937 28.2595 43.5294 28.3725C43.6011 28.399 43.6711 28.4072 43.7372 28.4072C44.0029 28.4072 44.2611 28.2367 44.3481 27.9679C44.8505 26.4743 44.4527 24.8909 43.4161 23.8054L44.7469 23.3965C44.747 23.3964 44.7471 23.3964 44.7472 23.3964C45.0918 23.2928 45.2799 22.9311 45.1772 22.5889C45.0739 22.2445 44.7118 22.055 44.3683 22.1662C44.368 22.1663 44.3678 22.1664 44.3675 22.1665L43.3496 22.4801L44.1381 20.9858L44.1386 20.9848C44.3011 20.6682 44.1822 20.2809 43.8711 20.1167L43.8701 20.1162C43.5535 19.9537 43.1662 20.0727 43.002 20.3838L43.0905 20.4304L43.002 20.3838L42.2138 21.8776L41.9001 20.8595C41.9001 20.8594 41.9 20.8593 41.9 20.8592C41.7966 20.5151 41.4348 20.3258 41.0914 20.4367C40.7473 20.5406 40.5596 20.902 40.6622 21.2439L40.6624 21.2449L41.0715 22.5631C39.9211 22.3824 38.7486 22.699 37.8424 23.4144V19.9654C37.8424 18.8099 36.9107 17.874 35.7569 17.8672V15.6055C35.7569 15.2524 35.4651 14.9605 35.1119 14.9605H30.7157C30.3626 14.9605 30.0708 15.2524 30.0708 15.6055V17.8672C28.9169 17.874 27.9853 18.8099 27.9853 19.9654V20.6211H23.4984ZM31.3535 16.236H34.4597V17.8526H31.3535V16.236ZM30.3469 21.9782V23.0682C30.3469 23.1147 30.3117 23.1498 30.2652 23.1498H29.9019H29.9019H29.9018H29.9018H29.9017H29.9017H29.9016H29.9016H29.9016H29.9015H29.9015H29.9014H29.9014H29.9014H29.9013H29.9013H29.9012H29.9012H29.9012H29.9011H29.9011H29.901H29.901H29.901H29.9009H29.9009H29.9008H29.9008H29.9008H29.9007H29.9007H29.9007H29.9006H29.9006H29.9005H29.9005H29.9005H29.9004H29.9004H29.9004H29.9003H29.9003H29.9002H29.9002H29.9002H29.9001H29.9001H29.9001H29.9H29.9H29.9H29.8999H29.8999H29.8999H29.8998H29.8998H29.8998H29.8997H29.8997H29.8997H29.8996H29.8996H29.8996H29.8995H29.8995H29.8995H29.8994H29.8994H29.8994H29.8993H29.8993H29.8993H29.8992H29.8992H29.8992H29.8991H29.8991H29.8991H29.899H29.899H29.899H29.8989H29.8989H29.8989H29.8988H29.8988H29.8988H29.8988H29.8987H29.8987H29.8987H29.8986H29.8986H29.8986H29.8985H29.8985H29.8985H29.8985H29.8984H29.8984H29.8984H29.8983H29.8983H29.8983H29.8982H29.8982H29.8982H29.8982H29.8981H29.8981H29.8981H29.898H29.898H29.898H29.898H29.8979H29.8979H29.8979H29.8979H29.8978H29.8978H29.8978H29.8977H29.8977H29.8977H29.8977H29.8976H29.8976H29.8976H29.8976H29.8975H29.8975H29.8975H29.8975H29.8974H29.8974H29.8974H29.8973H29.8973H29.8973H29.8973H29.8972H29.8972H29.8972H29.8972H29.8971H29.8971H29.8971H29.8971H29.897H29.897H29.897H29.897H29.8969H29.8969H29.8969H29.8969H29.8968H29.8968H29.8968H29.8968H29.8967H29.8967H29.8967H29.8967H29.8967H29.8966H29.8966H29.8966H29.8966H29.8965H29.8965H29.8965H29.8965H29.8964H29.8964H29.8964H29.8964H29.8963H29.8963H29.8963H29.8963H29.8963H29.8962H29.8962H29.8962H29.8962H29.8961H29.8961H29.8961H29.8961H29.896H29.896H29.896H29.896H29.896H29.8959H29.8959H29.8959H29.8959H29.8958H29.8958H29.8958H29.8958H29.8958H29.8957H29.8957H29.8957H29.8957H29.8956H29.8956H29.8956H29.8956H29.8956H29.8955H29.8955H29.8955H29.8955H29.8954H29.8954H29.8954H29.8954H29.8954H29.8953H29.8953H29.8953H29.8953H29.8953H29.8952H29.8952H29.8952H29.8952H29.8951H29.8951H29.8951H29.8951H29.8951H29.895H29.895H29.895H29.895H29.895H29.8949H29.8949H29.8949H29.8949H29.8948H29.8948H29.8948H29.8948H29.8948H29.8947H29.8947H29.8947H29.8947H29.8947H29.8946H29.8946H29.8946H29.8946H29.8945H29.8945H29.8945H29.8945H29.8945H29.8944H29.8944H29.8944H29.8944H29.8944H29.8943H29.8943H29.8943H29.8943H29.8942H29.8942H29.8942H29.8942H29.8942H29.8941H29.8941H29.8941H29.8941H29.8941H29.894H29.894H29.894H29.894H29.8939H29.8939H29.8939H29.8939H29.8939H29.8938H29.8938H29.8938H29.8938H29.8938H29.8937H29.8937H29.8937H29.8937H29.8936H29.8936H29.8936H29.8936H29.8936H29.8935H29.8935H29.8935H29.8935H29.8934H29.8934H29.8934H29.8934H29.8934H29.8933H29.8933H29.8933H29.8933H29.8932H29.8932H29.8932H29.8932H29.8931H29.8931H29.8931H29.8931H29.8931H29.893H29.893H29.893H29.893H29.8929H29.8929H29.8929H29.8929H29.8928H29.8928H29.8928H29.8928H29.8928H29.8927H29.8927H29.8927H29.8927H29.8926H29.8926H29.8926H29.8926H29.8925H29.8925H29.8925H29.8925H29.8924H29.8924H29.8924H29.8924H29.8923H29.8923H29.8923H29.8923H29.8922H29.8922H29.8922H29.8922H29.8921H29.8921H29.8921H29.8921H29.892H29.892H29.892H29.892H29.8919H29.8919H29.8919H29.8919H29.8918H29.8918H29.8918H29.8918H29.8917H29.8917H29.8917H29.8917H29.8916H29.8916H29.8916H29.8915H29.8915H29.8915H29.8915H29.8914H29.8914H29.8914H29.8914H29.8913H29.8913H29.8913H29.8912H29.8912H29.8912H29.8912H29.8911H29.8911H29.8911H29.891H29.891H29.891H29.891H29.8909H29.8909H29.8909H29.8908H29.8908H29.8908H29.8908H29.8907H29.8907H29.8907H29.8906H29.8906H29.8906H29.8905H29.8905H29.8905H29.8904H29.8904H29.8904H29.8904H29.8903H29.8903H29.8903H29.8902H29.8902H29.8902H29.8901H29.8901H29.8901H29.89H29.89H29.89H29.8899H29.8899H29.8899H29.8898H29.8898H29.8898H29.8897H29.8897H29.8897H29.8896H29.8896H29.8896H29.8895H29.8895H29.8895H29.8894H29.8894H29.8894H29.8893H29.8893H29.8893H29.8892H29.8892H29.8892H29.8891H29.8891H29.8891H29.889H29.889H29.8889H29.8889H29.8889H29.8888H29.8888H29.8888H29.8887H29.8887H29.8886H29.8886H29.8886H29.8885H29.8885H29.8885H29.8884H29.8884H29.8883H29.8883H29.8883H29.8882H29.8882H29.8881H29.8881H29.8881H29.888H29.888H29.8879H29.8879H29.8879H29.8878H29.8878H29.8877H29.8877H29.8877H29.8876H29.8876H29.8875H29.8875H29.8874H29.8874H29.8874H23.9507H23.9506H23.9506H23.9506H23.9505H23.9505H23.9504H23.9504H23.9504H23.9503H23.9503H23.9502H23.9502H23.9502H23.9501H23.9501H23.95H23.95H23.95H23.9499H23.9499H23.9498H23.9498H23.9498H23.9497H23.9497H23.9496H23.9496H23.9496H23.9495H23.9495H23.9494H23.9494H23.9494H23.9493H23.9493H23.9493H23.9492H23.9492H23.9492H23.9491H23.9491H23.949H23.949H23.949H23.9489H23.9489H23.9489H23.9488H23.9488H23.9488H23.9487H23.9487H23.9487H23.9486H23.9486H23.9485H23.9485H23.9485H23.9484H23.9484H23.9484H23.9483H23.9483H23.9483H23.9482H23.9482H23.9482H23.9481H23.9481H23.9481H23.9481H23.948H23.948H23.948H23.9479H23.9479H23.9479H23.9478H23.9478H23.9478H23.9477H23.9477H23.9477H23.9476H23.9476H23.9476H23.9475H23.9475H23.9475H23.9475H23.9474H23.9474H23.9474H23.9473H23.9473H23.9473H23.9472H23.9472H23.9472H23.9472H23.9471H23.9471H23.9471H23.947H23.947H23.947H23.947H23.9469H23.9469H23.9469H23.9468H23.9468H23.9468H23.9468H23.9467H23.9467H23.9467H23.9466H23.9466H23.9466H23.9466H23.9465H23.9465H23.9465H23.9465H23.9464H23.9464H23.9464H23.9464H23.9463H23.9463H23.9463H23.9462H23.9462H23.9462H23.9462H23.9461H23.9461H23.9461H23.9461H23.946H23.946H23.946H23.946H23.9459H23.9459H23.9459H23.9459H23.9458H23.9458H23.9458H23.9458H23.9457H23.9457H23.9457H23.9457H23.9456H23.9456H23.9456H23.9456H23.9455H23.9455H23.9455H23.9455H23.9454H23.9454H23.9454H23.9454H23.9453H23.9453H23.9453H23.9453H23.9453H23.9452H23.9452H23.9452H23.9452H23.9451H23.9451H23.9451H23.9451H23.945H23.945H23.945H23.945H23.945H23.9449H23.9449H23.9449H23.9449H23.9448H23.9448H23.9448H23.9448H23.9447H23.9447H23.9447H23.9447H23.9447H23.9446H23.9446H23.9446H23.9446H23.9445H23.9445H23.9445H23.9445H23.9445H23.9444H23.9444H23.9444H23.9444H23.9444H23.9443H23.9443H23.9443H23.9443H23.9442H23.9442H23.9442H23.9442H23.9442H23.9441H23.9441H23.9441H23.9441H23.944H23.944H23.944H23.944H23.944H23.9439H23.9439H23.9439H23.9439H23.9439H23.9438H23.9438H23.9438H23.9438H23.9437H23.9437H23.9437H23.9437H23.9437H23.9436H23.9436H23.9436H23.9436H23.9436H23.9435H23.9435H23.9435H23.9435H23.9434H23.9434H23.9434H23.9434H23.9434H23.9433H23.9433H23.9433H23.9433H23.9433H23.9432H23.9432H23.9432H23.9432H23.9431H23.9431H23.9431H23.9431H23.9431H23.943H23.943H23.943H23.943H23.943H23.9429H23.9429H23.9429H23.9429H23.9428H23.9428H23.9428H23.9428H23.9428H23.9427H23.9427H23.9427H23.9427H23.9427H23.9426H23.9426H23.9426H23.9426H23.9425H23.9425H23.9425H23.9425H23.9425H23.9424H23.9424H23.9424H23.9424H23.9423H23.9423H23.9423H23.9423H23.9423H23.9422H23.9422H23.9422H23.9422H23.9421H23.9421H23.9421H23.9421H23.9421H23.942H23.942H23.942H23.942H23.9419H23.9419H23.9419H23.9419H23.9419H23.9418H23.9418H23.9418H23.9418H23.9417H23.9417H23.9417H23.9417H23.9416H23.9416H23.9416H23.9416H23.9415H23.9415H23.9415H23.9415H23.9415H23.9414H23.9414H23.9414H23.9414H23.9413H23.9413H23.9413H23.9413H23.9412H23.9412H23.9412H23.9412H23.9411H23.9411H23.9411H23.9411H23.941H23.941H23.941H23.941H23.9409H23.9409H23.9409H23.9409H23.9408H23.9408H23.9408H23.9408H23.9407H23.9407H23.9407H23.9407H23.9406H23.9406H23.9406H23.9406H23.9405H23.9405H23.9405H23.9404H23.9404H23.9404H23.9404H23.9403H23.9403H23.9403H23.9403H23.9402H23.9402H23.9402H23.9401H23.9401H23.9401H23.9401H23.94H23.94H23.94H23.94H23.9399H23.9399H23.9399H23.9398H23.9398H23.9398H23.9398H23.9397H23.9397H23.9397H23.9396H23.9396H23.9396H23.9395H23.9395H23.9395H23.9395H23.9394H23.9394H23.9394H23.9393H23.9393H23.9393H23.9392H23.9392H23.9392H23.9392H23.9391H23.9391H23.9391H23.939H23.939H23.939H23.9389H23.9389H23.9389H23.9388H23.9388H23.9388H23.9387H23.9387H23.9387H23.9386H23.9386H23.9386H23.9385H23.9385H23.9385H23.9384H23.9384H23.9384H23.9383H23.9383H23.9383H23.9382H23.9382H23.9382H23.9381H23.9381H23.9381H23.938H23.938H23.938H23.9379H23.9379H23.9378H23.9378H23.9378H23.9377H23.9377H23.9377H23.9376H23.9376H23.9376H23.9375H23.9375H23.9374H23.9374H23.9374H23.9373H23.9373H23.9373H23.9372H23.9372H23.9371H23.9371H23.9371H23.937H23.937H23.9369H23.9369H23.9369H23.9368H23.9368H23.9367H23.9367H23.9367H23.9366H23.9366H23.9365H23.9365H23.9365H23.9364H23.9364H23.9363H23.9363H23.9362H23.9362H23.9362H23.3984C23.3519 23.1498 23.3168 23.1147 23.3168 23.0682V21.9782C23.3168 21.9317 23.3519 21.8965 23.3984 21.8965H30.2725C30.3091 21.8965 30.3469 21.929 30.3469 21.9782Z" fill="#2D3041" stroke="#2D3041" stroke-width="0.2"/>
<path d="M14.1609 9.27085C10.0801 9.27085 6.75815 12.5928 6.75815 16.6736C6.75815 20.7544 10.0801 24.0764 14.1609 24.0764C18.2417 24.0764 21.5637 20.7544 21.5637 16.6736C21.5637 12.5928 18.2417 9.27085 14.1609 9.27085ZM14.1609 22.7864C10.7937 22.7864 8.04812 20.0409 8.04812 16.6736C8.04812 13.3063 10.7865 10.5608 14.1609 10.5608C17.5354 10.5608 20.2737 13.3063 20.2737 16.6736C20.2737 20.0409 17.5282 22.7864 14.1609 22.7864Z" fill="#2D3041" stroke="#2D3041" stroke-width="0.2"/>
<path d="M12.8383 17.9928L16.8513 13.987L16.8513 13.9869M12.8383 17.9928L11.3995 16.6954C11.1888 16.4847 10.84 16.4847 10.6292 16.6954C10.4185 16.9062 10.4185 17.2549 10.6292 17.4657L12.4531 19.2895C12.5621 19.3985 12.7002 19.4494 12.8382 19.4494C12.9763 19.4494 13.1144 19.3985 13.2234 19.2895L17.6922 14.8207C17.9029 14.61 17.9029 14.2612 17.6922 14.0505C17.4815 13.8397 17.1327 13.847 16.922 14.0577L16.8513 13.9869M12.8383 17.9928L11.4702 16.6247C11.2204 16.3749 10.8083 16.3749 10.5585 16.6247C10.3087 16.8745 10.3087 17.2866 10.5585 17.5364L12.3824 19.3603C12.5111 19.489 12.6751 19.5494 12.8382 19.5494C13.0014 19.5494 13.1653 19.489 13.2941 19.3603L17.7629 14.8914C18.0127 14.6416 18.0127 14.2295 17.7629 13.9797C17.5114 13.7283 17.0994 13.739 16.8513 13.9869M12.8383 17.9928L16.8513 13.9869" fill="#2D3041" stroke="#2D3041" stroke-width="0.2"/>
<path d="M39.2158 42.9345V37.1359C39.2158 36.1797 38.4372 35.401 37.4809 35.401C36.5246 35.401 35.7459 36.1797 35.7459 37.1359V42.9345C35.7459 43.8908 36.5246 44.6695 37.4809 44.6695C38.4372 44.6695 39.2158 43.8908 39.2158 42.9345ZM37.0359 42.9345V37.1359C37.0359 36.8932 37.2382 36.6909 37.4809 36.6909C37.7236 36.6909 37.9259 36.8932 37.9259 37.1359V42.9345C37.9259 43.1772 37.7236 43.3795 37.4809 43.3795C37.2382 43.3795 37.0359 43.1772 37.0359 42.9345Z" fill="#2D3041" stroke="#2D3041" stroke-width="0.2"/>
<path d="M29.6243 42.9345V37.1359C29.6243 36.1797 28.8456 35.401 27.8893 35.401C26.9331 35.401 26.1544 36.1797 26.1544 37.1359V42.9345C26.1544 43.8908 26.9331 44.6695 27.8893 44.6695C28.8456 44.6695 29.6243 43.8908 29.6243 42.9345ZM27.4444 42.9345V37.1359C27.4444 36.8932 27.6466 36.6909 27.8893 36.6909C28.132 36.6909 28.3343 36.8932 28.3343 37.1359V42.9345C28.3343 43.1772 28.132 43.3795 27.8893 43.3795C27.6466 43.3795 27.4444 43.1772 27.4444 42.9345Z" fill="#2D3041" stroke="#2D3041" stroke-width="0.2"/>
<path d="M43.0729 35.6168L43.0725 35.6185L40.9527 45.8499H24.4172L22.2977 35.6196C22.2976 35.6194 22.2976 35.6192 22.2975 35.6191C22.2278 35.2634 21.8817 35.0513 21.5336 35.1192C21.1801 35.1882 20.9566 35.5331 21.0335 35.8849C21.0336 35.8851 21.0336 35.8853 21.0337 35.8855L23.2641 46.6307C23.2641 46.6308 23.2641 46.631 23.2642 46.6311C23.3246 46.9322 23.591 47.1471 23.8926 47.1471H41.4773C41.787 47.1471 42.0455 46.9314 42.1058 46.6311C42.1058 46.631 42.1058 46.6308 42.1059 46.6307L44.3363 35.8855C44.3363 35.8853 44.3364 35.8851 44.3364 35.8849C44.4133 35.5331 44.1898 35.1882 43.8363 35.1192C43.4848 35.0506 43.15 35.2738 43.0729 35.6168Z" fill="#2D3041" stroke="#2D3041" stroke-width="0.2"/>
<path d="M34.4202 42.9345V37.1359C34.4202 36.1797 33.6415 35.401 32.6852 35.401C31.729 35.401 30.9503 36.1797 30.9503 37.1359V42.9345C30.9503 43.8908 31.729 44.6695 32.6852 44.6695C33.6415 44.6695 34.4202 43.8908 34.4202 42.9345ZM32.2403 42.9345V37.1359C32.2403 36.8932 32.4425 36.6909 32.6852 36.6909C32.9279 36.6909 33.1302 36.8932 33.1302 37.1359V42.9345C33.1302 43.1772 32.9279 43.3795 32.6852 43.3795C32.4425 43.3795 32.2403 43.1772 32.2403 42.9345Z" fill="#2D3041" stroke="#2D3041" stroke-width="0.2"/>
<path d="M46 27.5H55.5V10.5L57.5 12.5L61.5 8.5L56.5 3H50.5C50.5 4 49.4 6 47 6C44.2 6 43.5 4 43.5 3H37.5L32 8.5L36 12.5L38 10.5V18" stroke="#2D3041" stroke-width="1.5" stroke-linecap="round" stroke-linejoin="round"/>
</svg>
