<svg xmlns="http://www.w3.org/2000/svg" xmlns:xlink="http://www.w3.org/1999/xlink" width="90" zoomAndPan="magnify" viewBox="0 0 67.5 49.499998" height="66" preserveAspectRatio="xMidYMid meet" version="1.0"><defs><clipPath id="b430c5716f"><path d="M 1.128906 46 L 66 46 L 66 48 L 1.128906 48 Z M 1.128906 46 " clip-rule="nonzero"/></clipPath></defs><g clip-path="url(#b430c5716f)"><path fill="#000000" d="M 65.191406 47.972656 L 1.761719 47.972656 C 1.59375 47.972656 1.433594 47.90625 1.316406 47.789062 C 1.195312 47.667969 1.128906 47.507812 1.128906 47.34375 C 1.128906 47.175781 1.195312 47.015625 1.316406 46.898438 C 1.433594 46.777344 1.59375 46.710938 1.761719 46.710938 L 65.191406 46.710938 C 65.359375 46.710938 65.519531 46.777344 65.636719 46.898438 C 65.757812 47.015625 65.824219 47.175781 65.824219 47.34375 C 65.824219 47.507812 65.757812 47.667969 65.636719 47.789062 C 65.519531 47.90625 65.359375 47.972656 65.191406 47.972656 Z M 65.191406 47.972656 " fill-opacity="1" fill-rule="nonzero"/></g><path fill="#000000" d="M 42.300781 47.972656 L 38.878906 47.972656 C 38.710938 47.972656 38.550781 47.90625 38.433594 47.789062 C 38.316406 47.667969 38.25 47.507812 38.25 47.34375 L 38.25 39.324219 C 38.25 38.707031 38.496094 38.113281 38.933594 37.675781 C 39.375 37.238281 39.96875 36.992188 40.589844 36.992188 C 41.210938 36.992188 41.804688 37.238281 42.246094 37.675781 C 42.683594 38.113281 42.929688 38.707031 42.929688 39.324219 L 42.929688 47.34375 C 42.929688 47.507812 42.863281 47.667969 42.746094 47.789062 C 42.628906 47.90625 42.464844 47.972656 42.300781 47.972656 Z M 39.511719 46.710938 L 41.667969 46.710938 L 41.667969 39.324219 C 41.667969 39.039062 41.554688 38.769531 41.351562 38.566406 C 41.148438 38.367188 40.875 38.253906 40.589844 38.253906 C 40.304688 38.253906 40.03125 38.367188 39.828125 38.566406 C 39.625 38.769531 39.511719 39.039062 39.511719 39.324219 Z M 39.511719 46.710938 " fill-opacity="1" fill-rule="nonzero"/><path fill="#000000" d="M 52.234375 47.972656 L 49.042969 47.972656 C 48.875 47.972656 48.714844 47.90625 48.59375 47.789062 C 48.476562 47.667969 48.410156 47.507812 48.410156 47.34375 L 48.410156 40.992188 C 48.410156 40.402344 48.644531 39.839844 49.0625 39.421875 C 49.480469 39.003906 50.046875 38.773438 50.636719 38.773438 C 51.230469 38.773438 51.796875 39.003906 52.214844 39.421875 C 52.632812 39.839844 52.867188 40.402344 52.867188 40.992188 L 52.867188 47.34375 C 52.867188 47.507812 52.800781 47.667969 52.679688 47.789062 C 52.5625 47.90625 52.402344 47.972656 52.234375 47.972656 Z M 49.675781 46.710938 L 51.601562 46.710938 L 51.601562 40.992188 C 51.601562 40.738281 51.5 40.492188 51.320312 40.3125 C 51.140625 40.132812 50.894531 40.03125 50.636719 40.03125 C 50.382812 40.03125 50.136719 40.132812 49.957031 40.3125 C 49.777344 40.492188 49.675781 40.738281 49.675781 40.992188 Z M 49.675781 46.710938 " fill-opacity="1" fill-rule="nonzero"/><path fill="#000000" d="M 58.972656 47.972656 L 55.785156 47.972656 C 55.617188 47.972656 55.457031 47.90625 55.339844 47.785156 C 55.222656 47.667969 55.152344 47.507812 55.152344 47.339844 L 55.152344 40.992188 C 55.152344 40.402344 55.390625 39.839844 55.808594 39.421875 C 56.222656 39.003906 56.792969 38.773438 57.382812 38.773438 C 57.972656 38.773438 58.539062 39.003906 58.957031 39.421875 C 59.375 39.839844 59.609375 40.402344 59.609375 40.992188 L 59.609375 47.339844 C 59.609375 47.425781 59.59375 47.507812 59.5625 47.582031 C 59.53125 47.660156 59.484375 47.730469 59.421875 47.789062 C 59.363281 47.847656 59.292969 47.894531 59.21875 47.925781 C 59.140625 47.957031 59.058594 47.972656 58.972656 47.972656 Z M 56.417969 46.710938 L 58.34375 46.710938 L 58.34375 40.992188 C 58.34375 40.738281 58.242188 40.492188 58.058594 40.3125 C 57.878906 40.132812 57.632812 40.03125 57.378906 40.03125 C 57.125 40.03125 56.878906 40.132812 56.699219 40.3125 C 56.519531 40.492188 56.417969 40.738281 56.417969 40.992188 Z M 56.417969 46.710938 " fill-opacity="1" fill-rule="nonzero"/><path fill="#000000" d="M 28.203125 47.972656 L 24.785156 47.972656 C 24.617188 47.972656 24.457031 47.90625 24.335938 47.789062 C 24.21875 47.667969 24.152344 47.507812 24.152344 47.34375 L 24.152344 39.324219 C 24.152344 38.707031 24.398438 38.113281 24.839844 37.675781 C 25.277344 37.238281 25.871094 36.992188 26.492188 36.992188 C 27.113281 36.992188 27.710938 37.238281 28.148438 37.675781 C 28.589844 38.113281 28.835938 38.707031 28.835938 39.324219 L 28.835938 47.34375 C 28.835938 47.507812 28.769531 47.667969 28.648438 47.789062 C 28.53125 47.90625 28.371094 47.972656 28.203125 47.972656 Z M 25.417969 46.710938 L 27.570312 46.710938 L 27.570312 39.324219 C 27.570312 39.039062 27.457031 38.769531 27.253906 38.566406 C 27.054688 38.367188 26.777344 38.253906 26.492188 38.253906 C 26.207031 38.253906 25.933594 38.367188 25.730469 38.566406 C 25.53125 38.769531 25.417969 39.039062 25.417969 39.324219 Z M 25.417969 46.710938 " fill-opacity="1" fill-rule="nonzero"/><path fill="#000000" d="M 28.402344 24.925781 L 25.210938 24.925781 C 25.042969 24.925781 24.882812 24.859375 24.765625 24.742188 C 24.644531 24.621094 24.578125 24.460938 24.578125 24.296875 L 24.578125 21.738281 C 24.578125 21.148438 24.8125 20.585938 25.230469 20.167969 C 25.648438 19.753906 26.214844 19.519531 26.808594 19.519531 C 27.398438 19.519531 27.964844 19.753906 28.382812 20.167969 C 28.800781 20.585938 29.035156 21.148438 29.035156 21.738281 L 29.035156 24.296875 C 29.035156 24.464844 28.96875 24.625 28.847656 24.742188 C 28.730469 24.859375 28.570312 24.925781 28.402344 24.925781 Z M 25.84375 23.664062 L 27.769531 23.664062 L 27.769531 21.738281 C 27.769531 21.484375 27.667969 21.242188 27.488281 21.058594 C 27.308594 20.878906 27.0625 20.78125 26.808594 20.78125 C 26.550781 20.78125 26.304688 20.878906 26.125 21.058594 C 25.945312 21.242188 25.84375 21.484375 25.84375 21.738281 Z M 25.84375 23.664062 " fill-opacity="1" fill-rule="nonzero"/><path fill="#000000" d="M 35.082031 24.925781 L 31.890625 24.925781 C 31.722656 24.925781 31.5625 24.859375 31.445312 24.742188 C 31.328125 24.621094 31.257812 24.460938 31.257812 24.296875 L 31.257812 21.738281 C 31.257812 21.148438 31.496094 20.585938 31.914062 20.167969 C 32.328125 19.753906 32.898438 19.519531 33.488281 19.519531 C 34.078125 19.519531 34.644531 19.753906 35.0625 20.167969 C 35.480469 20.585938 35.714844 21.148438 35.714844 21.738281 L 35.714844 24.296875 C 35.714844 24.464844 35.648438 24.625 35.53125 24.742188 C 35.410156 24.859375 35.25 24.925781 35.082031 24.925781 Z M 32.523438 23.664062 L 34.449219 23.664062 L 34.449219 21.738281 C 34.449219 21.484375 34.347656 21.242188 34.167969 21.058594 C 33.988281 20.878906 33.742188 20.78125 33.488281 20.78125 C 33.230469 20.78125 32.988281 20.878906 32.804688 21.058594 C 32.625 21.242188 32.523438 21.484375 32.523438 21.738281 Z M 32.523438 23.664062 " fill-opacity="1" fill-rule="nonzero"/><path fill="#000000" d="M 41.765625 24.925781 L 38.574219 24.925781 C 38.40625 24.925781 38.242188 24.859375 38.125 24.742188 C 38.007812 24.621094 37.941406 24.460938 37.941406 24.296875 L 37.941406 21.738281 C 37.941406 21.148438 38.175781 20.585938 38.59375 20.167969 C 39.011719 19.753906 39.578125 19.519531 40.167969 19.519531 C 40.757812 19.519531 41.324219 19.753906 41.742188 20.167969 C 42.160156 20.585938 42.394531 21.148438 42.394531 21.738281 L 42.394531 24.296875 C 42.394531 24.464844 42.328125 24.625 42.210938 24.742188 C 42.09375 24.859375 41.929688 24.925781 41.765625 24.925781 Z M 39.203125 23.664062 L 41.132812 23.664062 L 41.132812 21.738281 C 41.132812 21.484375 41.03125 21.242188 40.847656 21.058594 C 40.667969 20.878906 40.421875 20.78125 40.167969 20.78125 C 39.914062 20.78125 39.667969 20.878906 39.488281 21.058594 C 39.304688 21.242188 39.203125 21.484375 39.203125 21.738281 Z M 39.203125 23.664062 " fill-opacity="1" fill-rule="nonzero"/><path fill="#000000" d="M 50.113281 34.132812 L 47.539062 34.132812 C 47.371094 34.132812 47.210938 34.066406 47.089844 33.945312 C 46.972656 33.828125 46.90625 33.667969 46.90625 33.5 L 46.90625 31.417969 C 46.90625 30.910156 47.109375 30.425781 47.46875 30.066406 C 47.828125 29.707031 48.320312 29.503906 48.828125 29.503906 C 49.339844 29.503906 49.828125 29.707031 50.1875 30.066406 C 50.546875 30.425781 50.75 30.910156 50.75 31.417969 L 50.75 33.5 C 50.75 33.585938 50.734375 33.667969 50.703125 33.742188 C 50.671875 33.820312 50.625 33.890625 50.5625 33.949219 C 50.503906 34.007812 50.433594 34.054688 50.359375 34.085938 C 50.28125 34.117188 50.199219 34.132812 50.113281 34.132812 Z M 48.167969 32.871094 L 49.484375 32.871094 L 49.484375 31.417969 C 49.484375 31.25 49.414062 31.085938 49.296875 30.96875 C 49.175781 30.847656 49.011719 30.78125 48.84375 30.78125 C 48.753906 30.777344 48.667969 30.792969 48.589844 30.820312 C 48.507812 30.851562 48.433594 30.898438 48.371094 30.957031 C 48.308594 31.019531 48.257812 31.089844 48.222656 31.167969 C 48.191406 31.246094 48.171875 31.332031 48.171875 31.417969 Z M 48.167969 32.871094 " fill-opacity="1" fill-rule="nonzero"/><path fill="#000000" d="M 55.148438 34.132812 L 52.566406 34.132812 C 52.398438 34.132812 52.238281 34.066406 52.121094 33.945312 C 52.003906 33.828125 51.9375 33.667969 51.9375 33.5 L 51.9375 31.417969 C 51.9375 30.910156 52.136719 30.425781 52.5 30.066406 C 52.859375 29.707031 53.347656 29.503906 53.859375 29.503906 C 54.367188 29.503906 54.855469 29.707031 55.21875 30.066406 C 55.578125 30.425781 55.78125 30.910156 55.78125 31.417969 L 55.78125 33.5 C 55.78125 33.667969 55.714844 33.828125 55.597656 33.945312 C 55.476562 34.066406 55.316406 34.132812 55.148438 34.132812 Z M 53.203125 32.871094 L 54.519531 32.871094 L 54.519531 31.417969 C 54.519531 31.25 54.449219 31.085938 54.328125 30.96875 C 54.210938 30.847656 54.046875 30.78125 53.875 30.78125 C 53.789062 30.777344 53.703125 30.792969 53.621094 30.820312 C 53.542969 30.851562 53.46875 30.898438 53.40625 30.957031 C 53.34375 31.019531 53.292969 31.089844 53.257812 31.167969 C 53.222656 31.246094 53.207031 31.332031 53.203125 31.417969 Z M 53.203125 32.871094 " fill-opacity="1" fill-rule="nonzero"/><path fill="#000000" d="M 60.183594 34.132812 L 57.601562 34.132812 C 57.433594 34.132812 57.273438 34.066406 57.15625 33.945312 C 57.035156 33.828125 56.96875 33.667969 56.96875 33.5 L 56.96875 31.417969 C 56.96875 30.910156 57.171875 30.425781 57.535156 30.066406 C 57.894531 29.707031 58.382812 29.503906 58.894531 29.503906 C 59.402344 29.503906 59.890625 29.707031 60.253906 30.066406 C 60.613281 30.425781 60.816406 30.910156 60.816406 31.417969 L 60.816406 33.5 C 60.816406 33.667969 60.75 33.828125 60.628906 33.945312 C 60.511719 34.066406 60.351562 34.132812 60.183594 34.132812 Z M 58.238281 32.871094 L 59.554688 32.871094 L 59.554688 31.417969 C 59.550781 31.25 59.484375 31.085938 59.363281 30.96875 C 59.246094 30.847656 59.082031 30.78125 58.910156 30.78125 C 58.824219 30.777344 58.738281 30.792969 58.65625 30.820312 C 58.578125 30.851562 58.503906 30.898438 58.441406 30.957031 C 58.378906 31.019531 58.328125 31.089844 58.292969 31.167969 C 58.257812 31.246094 58.238281 31.332031 58.238281 31.417969 Z M 58.238281 32.871094 " fill-opacity="1" fill-rule="nonzero"/><path fill="#000000" d="M 36.253906 47.972656 L 30.71875 47.972656 C 30.550781 47.972656 30.390625 47.90625 30.269531 47.789062 C 30.152344 47.667969 30.085938 47.507812 30.085938 47.34375 L 30.085938 40.378906 C 30.085938 39.480469 30.445312 38.621094 31.082031 37.984375 C 31.71875 37.347656 32.582031 36.992188 33.484375 36.992188 C 34.386719 36.992188 35.25 37.347656 35.890625 37.984375 C 36.527344 38.621094 36.886719 39.480469 36.886719 40.378906 L 36.886719 47.34375 C 36.886719 47.507812 36.820312 47.667969 36.699219 47.785156 C 36.582031 47.90625 36.421875 47.972656 36.253906 47.972656 Z M 31.351562 46.710938 L 35.621094 46.710938 L 35.621094 40.378906 C 35.621094 39.816406 35.398438 39.273438 34.996094 38.875 C 34.597656 38.476562 34.054688 38.253906 33.488281 38.253906 C 32.921875 38.253906 32.378906 38.476562 31.976562 38.875 C 31.578125 39.273438 31.351562 39.816406 31.351562 40.378906 Z M 31.351562 46.710938 " fill-opacity="1" fill-rule="nonzero"/><path fill="#000000" d="M 42.230469 35.398438 L 38.8125 35.398438 C 38.644531 35.398438 38.484375 35.332031 38.363281 35.210938 C 38.246094 35.09375 38.179688 34.933594 38.179688 34.765625 L 38.179688 28.601562 C 38.179688 27.984375 38.425781 27.390625 38.863281 26.953125 C 39.304688 26.515625 39.898438 26.269531 40.519531 26.269531 C 41.140625 26.269531 41.738281 26.515625 42.175781 26.953125 C 42.617188 27.390625 42.863281 27.984375 42.863281 28.601562 L 42.863281 34.769531 C 42.863281 34.9375 42.792969 35.097656 42.675781 35.214844 C 42.558594 35.332031 42.398438 35.398438 42.230469 35.398438 Z M 39.441406 34.136719 L 41.597656 34.136719 L 41.597656 28.601562 C 41.597656 28.316406 41.484375 28.042969 41.28125 27.84375 C 41.078125 27.640625 40.804688 27.527344 40.519531 27.527344 C 40.234375 27.527344 39.960938 27.640625 39.757812 27.84375 C 39.554688 28.042969 39.441406 28.316406 39.441406 28.601562 Z M 39.441406 34.136719 " fill-opacity="1" fill-rule="nonzero"/><path fill="#000000" d="M 28.132812 35.398438 L 24.714844 35.398438 C 24.546875 35.398438 24.386719 35.332031 24.269531 35.210938 C 24.148438 35.09375 24.082031 34.933594 24.082031 34.765625 L 24.082031 28.601562 C 24.082031 27.984375 24.328125 27.390625 24.769531 26.953125 C 25.207031 26.515625 25.804688 26.269531 26.425781 26.269531 C 27.046875 26.269531 27.640625 26.515625 28.082031 26.953125 C 28.519531 27.390625 28.765625 27.984375 28.765625 28.601562 L 28.765625 34.769531 C 28.765625 34.9375 28.699219 35.097656 28.582031 35.214844 C 28.460938 35.332031 28.300781 35.398438 28.132812 35.398438 Z M 25.347656 34.136719 L 27.5 34.136719 L 27.5 28.601562 C 27.5 28.316406 27.386719 28.042969 27.1875 27.84375 C 26.984375 27.640625 26.710938 27.527344 26.425781 27.527344 C 26.140625 27.527344 25.867188 27.640625 25.664062 27.84375 C 25.460938 28.042969 25.347656 28.316406 25.347656 28.601562 Z M 25.347656 34.136719 " fill-opacity="1" fill-rule="nonzero"/><path fill="#000000" d="M 36.183594 35.398438 L 30.648438 35.398438 C 30.480469 35.398438 30.320312 35.332031 30.203125 35.214844 C 30.082031 35.09375 30.015625 34.933594 30.015625 34.769531 L 30.015625 29.65625 C 30.015625 28.757812 30.375 27.898438 31.011719 27.261719 C 31.648438 26.625 32.515625 26.269531 33.414062 26.269531 C 34.316406 26.269531 35.183594 26.625 35.820312 27.261719 C 36.457031 27.898438 36.816406 28.757812 36.816406 29.65625 L 36.816406 34.769531 C 36.816406 34.9375 36.75 35.097656 36.628906 35.214844 C 36.511719 35.332031 36.351562 35.398438 36.183594 35.398438 Z M 31.28125 34.136719 L 35.550781 34.136719 L 35.550781 29.65625 C 35.550781 29.09375 35.324219 28.550781 34.925781 28.152344 C 34.523438 27.753906 33.980469 27.53125 33.414062 27.53125 C 32.851562 27.53125 32.308594 27.753906 31.90625 28.152344 C 31.507812 28.550781 31.28125 29.09375 31.28125 29.65625 Z M 31.28125 34.136719 " fill-opacity="1" fill-rule="nonzero"/><path fill="#000000" d="M 33.472656 16.429688 C 33.03125 16.429688 32.601562 16.300781 32.238281 16.058594 C 31.871094 15.816406 31.589844 15.46875 31.421875 15.066406 C 31.253906 14.664062 31.207031 14.21875 31.292969 13.789062 C 31.378906 13.359375 31.589844 12.964844 31.902344 12.65625 C 32.210938 12.347656 32.609375 12.136719 33.039062 12.050781 C 33.46875 11.964844 33.914062 12.007812 34.320312 12.175781 C 34.726562 12.34375 35.074219 12.628906 35.316406 12.992188 C 35.5625 13.355469 35.691406 13.78125 35.691406 14.21875 C 35.691406 14.804688 35.457031 15.367188 35.039062 15.78125 C 34.625 16.199219 34.058594 16.429688 33.472656 16.429688 Z M 33.472656 13.269531 C 33.28125 13.269531 33.097656 13.328125 32.941406 13.433594 C 32.785156 13.535156 32.660156 13.683594 32.589844 13.859375 C 32.515625 14.03125 32.496094 14.222656 32.535156 14.410156 C 32.570312 14.59375 32.664062 14.761719 32.796875 14.894531 C 32.929688 15.027344 33.101562 15.121094 33.285156 15.15625 C 33.472656 15.191406 33.664062 15.175781 33.835938 15.101562 C 34.011719 15.03125 34.160156 14.90625 34.265625 14.75 C 34.371094 14.59375 34.425781 14.410156 34.425781 14.222656 C 34.425781 13.96875 34.324219 13.726562 34.148438 13.550781 C 33.96875 13.371094 33.726562 13.273438 33.472656 13.269531 Z M 33.472656 13.269531 " fill-opacity="1" fill-rule="nonzero"/><path fill="#000000" d="M 17.902344 47.972656 L 14.710938 47.972656 C 14.542969 47.972656 14.382812 47.90625 14.265625 47.785156 C 14.144531 47.667969 14.078125 47.507812 14.078125 47.339844 L 14.078125 40.992188 C 14.078125 40.402344 14.3125 39.839844 14.730469 39.421875 C 15.148438 39.003906 15.714844 38.773438 16.304688 38.773438 C 16.898438 38.773438 17.464844 39.003906 17.882812 39.421875 C 18.300781 39.839844 18.535156 40.402344 18.535156 40.992188 L 18.535156 47.339844 C 18.535156 47.507812 18.46875 47.667969 18.347656 47.785156 C 18.230469 47.90625 18.070312 47.972656 17.902344 47.972656 Z M 15.34375 46.710938 L 17.269531 46.710938 L 17.269531 40.992188 C 17.269531 40.863281 17.246094 40.742188 17.195312 40.625 C 17.148438 40.507812 17.078125 40.402344 16.988281 40.3125 C 16.898438 40.222656 16.792969 40.152344 16.675781 40.105469 C 16.558594 40.058594 16.433594 40.03125 16.304688 40.03125 C 16.179688 40.03125 16.054688 40.058594 15.9375 40.105469 C 15.820312 40.152344 15.714844 40.222656 15.625 40.3125 C 15.535156 40.402344 15.464844 40.507812 15.417969 40.625 C 15.367188 40.742188 15.34375 40.863281 15.34375 40.992188 Z M 15.34375 46.710938 " fill-opacity="1" fill-rule="nonzero"/><path fill="#000000" d="M 11.15625 47.972656 L 7.96875 47.972656 C 7.800781 47.972656 7.640625 47.90625 7.523438 47.785156 C 7.402344 47.667969 7.335938 47.507812 7.335938 47.339844 L 7.335938 40.992188 C 7.335938 40.402344 7.570312 39.839844 7.988281 39.421875 C 8.40625 39.003906 8.972656 38.773438 9.566406 38.773438 C 10.15625 38.773438 10.722656 39.003906 11.140625 39.421875 C 11.558594 39.839844 11.792969 40.402344 11.792969 40.992188 L 11.792969 47.339844 C 11.792969 47.425781 11.777344 47.507812 11.746094 47.582031 C 11.710938 47.660156 11.664062 47.730469 11.605469 47.789062 C 11.546875 47.847656 11.476562 47.894531 11.398438 47.925781 C 11.324219 47.957031 11.242188 47.972656 11.15625 47.972656 Z M 8.597656 46.710938 L 10.523438 46.710938 L 10.523438 40.992188 C 10.523438 40.863281 10.5 40.742188 10.453125 40.625 C 10.402344 40.507812 10.332031 40.402344 10.242188 40.3125 C 10.152344 40.222656 10.046875 40.152344 9.929688 40.105469 C 9.8125 40.058594 9.6875 40.03125 9.5625 40.03125 C 9.433594 40.03125 9.308594 40.058594 9.195312 40.105469 C 9.078125 40.152344 8.96875 40.222656 8.882812 40.3125 C 8.792969 40.402344 8.722656 40.507812 8.671875 40.625 C 8.625 40.742188 8.597656 40.863281 8.597656 40.992188 Z M 8.597656 46.710938 " fill-opacity="1" fill-rule="nonzero"/><path fill="#000000" d="M 19.410156 34.132812 L 16.828125 34.132812 C 16.660156 34.132812 16.5 34.066406 16.382812 33.945312 C 16.261719 33.828125 16.195312 33.667969 16.195312 33.5 L 16.195312 31.417969 C 16.195312 30.910156 16.398438 30.425781 16.757812 30.066406 C 17.121094 29.707031 17.609375 29.503906 18.117188 29.503906 C 18.628906 29.503906 19.117188 29.707031 19.476562 30.066406 C 19.839844 30.425781 20.042969 30.910156 20.042969 31.417969 L 20.042969 33.5 C 20.042969 33.667969 19.976562 33.828125 19.855469 33.945312 C 19.738281 34.066406 19.578125 34.132812 19.410156 34.132812 Z M 17.460938 32.871094 L 18.777344 32.871094 L 18.777344 31.417969 C 18.777344 31.25 18.710938 31.085938 18.589844 30.96875 C 18.46875 30.847656 18.304688 30.78125 18.136719 30.78125 C 18.050781 30.777344 17.964844 30.792969 17.882812 30.820312 C 17.800781 30.851562 17.726562 30.898438 17.664062 30.957031 C 17.601562 31.019531 17.554688 31.089844 17.519531 31.167969 C 17.484375 31.246094 17.464844 31.332031 17.464844 31.417969 Z M 17.460938 32.871094 " fill-opacity="1" fill-rule="nonzero"/><path fill="#000000" d="M 14.375 34.132812 L 11.792969 34.132812 C 11.625 34.132812 11.464844 34.066406 11.347656 33.945312 C 11.230469 33.828125 11.160156 33.667969 11.160156 33.5 L 11.160156 31.417969 C 11.160156 30.910156 11.363281 30.425781 11.726562 30.066406 C 12.085938 29.707031 12.574219 29.503906 13.085938 29.503906 C 13.59375 29.503906 14.082031 29.707031 14.445312 30.066406 C 14.804688 30.425781 15.007812 30.910156 15.007812 31.417969 L 15.007812 33.5 C 15.007812 33.667969 14.941406 33.828125 14.824219 33.945312 C 14.703125 34.066406 14.542969 34.132812 14.375 34.132812 Z M 12.429688 32.871094 L 13.746094 32.871094 L 13.746094 31.417969 C 13.746094 31.25 13.675781 31.085938 13.554688 30.96875 C 13.4375 30.847656 13.273438 30.78125 13.101562 30.78125 C 13.015625 30.777344 12.929688 30.792969 12.847656 30.820312 C 12.769531 30.851562 12.695312 30.898438 12.632812 30.957031 C 12.570312 31.019531 12.519531 31.089844 12.484375 31.167969 C 12.449219 31.246094 12.433594 31.332031 12.429688 31.417969 Z M 12.429688 32.871094 " fill-opacity="1" fill-rule="nonzero"/><path fill="#000000" d="M 9.339844 34.132812 L 6.761719 34.132812 C 6.59375 34.132812 6.429688 34.066406 6.3125 33.945312 C 6.195312 33.828125 6.128906 33.667969 6.128906 33.5 L 6.128906 31.417969 C 6.128906 30.910156 6.332031 30.425781 6.691406 30.066406 C 7.050781 29.707031 7.539062 29.503906 8.050781 29.503906 C 8.558594 29.503906 9.050781 29.707031 9.410156 30.066406 C 9.769531 30.425781 9.972656 30.910156 9.972656 31.417969 L 9.972656 33.5 C 9.972656 33.667969 9.90625 33.828125 9.789062 33.945312 C 9.667969 34.066406 9.507812 34.132812 9.339844 34.132812 Z M 7.394531 32.871094 L 8.710938 32.871094 L 8.710938 31.417969 C 8.710938 31.25 8.640625 31.085938 8.523438 30.96875 C 8.402344 30.847656 8.238281 30.78125 8.070312 30.78125 C 7.980469 30.777344 7.894531 30.792969 7.816406 30.820312 C 7.734375 30.851562 7.660156 30.898438 7.597656 30.957031 C 7.535156 31.019531 7.484375 31.089844 7.449219 31.167969 C 7.414062 31.246094 7.398438 31.332031 7.398438 31.417969 Z M 7.394531 32.871094 " fill-opacity="1" fill-rule="nonzero"/><path fill="#000000" d="M 64.429688 25.59375 L 62.855469 23.472656 C 62.714844 23.28125 62.535156 23.121094 62.324219 23.007812 C 62.113281 22.890625 61.878906 22.828125 61.640625 22.816406 L 45.132812 22.816406 L 45.132812 17.957031 C 45.332031 17.910156 45.511719 17.800781 45.648438 17.644531 C 45.78125 17.488281 45.867188 17.296875 45.882812 17.09375 C 45.902344 16.886719 45.855469 16.683594 45.753906 16.503906 C 45.648438 16.328125 45.492188 16.1875 45.304688 16.101562 L 34.199219 10.394531 C 34.183594 10.386719 34.167969 10.378906 34.152344 10.371094 C 34.136719 10.367188 34.121094 10.363281 34.101562 10.355469 L 34.101562 8.136719 C 34.671875 8.527344 35.335938 8.746094 36.027344 8.769531 C 36.414062 8.769531 36.792969 8.6875 37.144531 8.527344 C 37.699219 8.230469 38.332031 8.117188 38.957031 8.199219 C 39.097656 8.230469 39.242188 8.226562 39.382812 8.191406 C 39.523438 8.160156 39.652344 8.09375 39.765625 8.003906 C 39.878906 7.910156 39.96875 7.796875 40.03125 7.664062 C 40.09375 7.535156 40.125 7.390625 40.125 7.246094 L 40.125 4.445312 C 40.128906 4.238281 40.0625 4.039062 39.941406 3.871094 C 39.820312 3.703125 39.644531 3.582031 39.449219 3.519531 C 38.5 3.289062 37.496094 3.414062 36.632812 3.871094 C 35.59375 4.335938 34.496094 3.40625 34.101562 3.023438 L 34.101562 2.265625 C 34.101562 2.097656 34.035156 1.9375 33.914062 1.820312 C 33.796875 1.703125 33.636719 1.636719 33.46875 1.636719 C 33.300781 1.636719 33.140625 1.703125 33.019531 1.820312 C 32.902344 1.9375 32.835938 2.097656 32.835938 2.265625 L 32.835938 10.359375 C 32.820312 10.363281 32.804688 10.367188 32.789062 10.371094 C 32.773438 10.378906 32.757812 10.386719 32.742188 10.394531 L 21.640625 16.105469 C 21.453125 16.1875 21.296875 16.328125 21.191406 16.503906 C 21.089844 16.683594 21.042969 16.886719 21.0625 17.09375 C 21.082031 17.296875 21.164062 17.492188 21.296875 17.644531 C 21.433594 17.800781 21.613281 17.910156 21.8125 17.960938 L 21.8125 22.820312 L 5.308594 22.820312 C 5.070312 22.828125 4.835938 22.894531 4.625 23.007812 C 4.414062 23.121094 4.234375 23.28125 4.09375 23.472656 L 2.492188 25.628906 C 2.398438 25.773438 2.34375 25.945312 2.335938 26.121094 C 2.328125 26.296875 2.367188 26.46875 2.449219 26.625 C 2.53125 26.78125 2.65625 26.910156 2.804688 27.003906 C 2.957031 27.09375 3.128906 27.144531 3.304688 27.148438 L 3.304688 47.34375 C 3.304688 47.507812 3.371094 47.667969 3.488281 47.789062 C 3.605469 47.90625 3.769531 47.972656 3.9375 47.972656 L 63.007812 47.972656 C 63.175781 47.972656 63.339844 47.90625 63.457031 47.789062 C 63.574219 47.667969 63.640625 47.507812 63.640625 47.34375 L 63.640625 27.148438 C 63.816406 27.144531 63.984375 27.097656 64.132812 27.007812 C 64.28125 26.917969 64.402344 26.789062 64.488281 26.636719 C 64.574219 26.476562 64.617188 26.292969 64.605469 26.109375 C 64.59375 25.921875 64.535156 25.746094 64.429688 25.59375 Z M 34.105469 4.628906 C 34.535156 4.949219 35.042969 5.15625 35.574219 5.222656 C 36.109375 5.292969 36.652344 5.222656 37.148438 5.023438 C 37.675781 4.75 38.269531 4.632812 38.863281 4.675781 L 38.863281 6.914062 C 38.089844 6.878906 37.324219 7.039062 36.632812 7.378906 C 35.59375 7.84375 34.5 6.914062 34.101562 6.527344 Z M 33.296875 11.527344 C 33.410156 11.484375 33.535156 11.484375 33.648438 11.527344 L 43.765625 16.734375 L 23.179688 16.734375 Z M 3.867188 25.894531 L 5.109375 24.222656 C 5.136719 24.179688 5.175781 24.148438 5.21875 24.125 C 5.261719 24.097656 5.308594 24.085938 5.355469 24.078125 L 21.8125 24.078125 L 21.8125 25.894531 Z M 4.570312 27.152344 L 21.8125 27.152344 L 21.8125 46.710938 L 4.570312 46.710938 Z M 23.078125 26.523438 L 23.078125 18.015625 L 43.867188 18.015625 L 43.867188 46.710938 L 23.078125 46.710938 Z M 62.378906 46.710938 L 45.132812 46.710938 L 45.132812 27.152344 L 62.378906 27.152344 Z M 63.007812 25.894531 L 45.132812 25.894531 L 45.132812 24.078125 L 61.589844 24.078125 C 61.636719 24.082031 61.6875 24.097656 61.730469 24.125 C 61.769531 24.148438 61.808594 24.183594 61.835938 24.222656 L 63.078125 25.894531 Z M 63.007812 25.894531 " fill-opacity="1" fill-rule="nonzero"/></svg>